<svg width="100" height="100" viewBox="0 0 100 100" fill="none" xmlns="http://www.w3.org/2000/svg">
<circle cx="50" cy="50" r="50" fill="#157BD3"/>
<g clip-path="url(#clip0_12_17)">
<path opacity="0.21" d="M64.641 80.9502C66.4475 81.0816 68.3068 80.1356 69.2166 78.5722C70.1397 77.0087 70.0737 74.9328 69.0452 73.435C67.331 70.9649 62.7027 70.6364 60.9226 73.2773C58.9183 76.2598 61.1204 80.6875 64.641 80.9502Z" stroke="black" stroke-width="4" stroke-miterlimit="10"/>
<path opacity="0.21" d="M39.5215 27.6868C37.9524 27.6868 36.3965 27.7655 34.8669 28.0677C33.5878 28.3174 32.3879 28.7772 31.6626 29.9334C31.3593 30.4195 31.1484 31.0108 31.0561 31.5758C30.7133 33.7174 31.3461 35.583 32.8098 37.199C33.8647 38.3552 35.091 39.2618 36.5151 39.9055C36.8975 40.0763 37.2535 40.2734 37.6359 40.4574C38.1238 40.6939 38.3612 41.1143 38.2689 41.653C38.1238 42.415 37.9524 43.1771 37.5173 43.8471C36.8579 44.8588 35.9217 45.5157 34.8141 45.9624C33.5219 46.4748 32.2692 46.4617 30.9769 45.9099C29.7375 45.3712 28.5507 44.7405 27.4695 43.926C26.0849 42.8749 24.9246 41.6136 24.0675 40.0895C22.9203 38.0793 22.4324 35.8983 22.5247 33.599C22.5774 32.3115 22.828 31.0633 23.2236 29.8414C23.5664 28.7903 24.0279 27.8181 24.5949 26.8721C25.9267 24.6255 27.7332 22.8649 29.9748 21.551C32.0582 20.3423 34.2867 19.6985 36.6733 19.6722C40.1677 19.646 43.6619 19.646 47.1562 19.6722C49.1868 19.6854 51.2176 19.7905 53.2482 19.8562C55.2525 19.9219 57.2699 20.0138 59.2742 20.0401C62.7817 20.0795 66.2892 20.1189 69.7835 20.0795C71.3658 20.0532 72.9613 19.8562 74.5437 19.6985C75.0052 19.6591 75.4535 19.5277 75.9018 19.4357C76.7061 19.2781 77.1017 19.462 77.4446 20.1846C78.3808 22.1291 78.2225 24.0342 77.1545 25.8605C76.1128 27.6342 74.5172 28.7247 72.6449 29.4604C70.9834 30.1174 69.2429 30.3013 67.4891 30.4195C65.4189 30.5641 63.3619 30.4326 61.3049 30.183C60.5928 30.0911 60.4477 30.2488 60.3818 30.9582C60.25 32.2589 60.0785 33.5597 59.9335 34.8735C59.7752 36.161 59.6302 37.4618 59.4852 38.7494C59.4457 39.0647 59.4457 39.38 59.3797 39.6954C59.3138 40.0238 59.4457 40.1158 59.7489 40.1552C60.5928 40.2734 61.4367 40.2209 62.2806 40.1421C64.0608 39.9844 65.7485 39.4851 67.4232 38.9202C67.977 38.7362 68.5308 38.5523 69.0978 38.434C69.2956 38.3946 69.5725 38.5129 69.7439 38.6443C70.6142 39.3406 70.9834 40.2734 71.023 41.364C71.0757 42.7829 70.812 44.1099 70.0077 45.3055C69.4143 46.199 68.6099 46.869 67.6605 47.3683C65.8673 48.3011 63.9288 48.6295 61.9246 48.6295C61.1466 48.6295 60.3687 48.5902 59.5907 48.5639C59.0765 48.5507 59.0105 48.6165 58.9709 49.1288C58.905 49.8908 58.8523 50.6529 58.76 51.4149C58.483 53.8981 58.2193 56.3681 57.8896 58.8514C57.6128 61.006 57.1908 63.1476 56.5579 65.2366C56.2414 66.2746 55.9381 67.3125 55.5557 68.3243C54.9888 69.8614 54.2108 71.2935 53.3141 72.6599C52.0614 74.565 50.5319 76.2336 48.699 77.6132C46.8793 78.9664 44.8882 79.9912 42.6334 80.4248C41.1697 80.7007 39.6929 80.7533 38.2425 80.4248C36.0272 79.8993 34.1153 78.8351 32.7571 76.9431C32.0055 75.892 31.4781 74.7358 31.1616 73.4745C30.6341 71.3855 30.6341 69.2964 31.0693 67.1943C31.4517 65.3549 32.1241 63.6206 33.0208 61.952C33.9965 60.1389 35.1833 58.4834 36.5151 56.9199C37.8205 55.3828 39.2446 53.9506 40.8005 52.6631C42.1719 51.5463 43.5828 50.4689 44.9805 49.3653C45.5739 48.9055 46.1672 48.4456 46.7475 47.9595C47.0508 47.7099 47.0376 47.6573 46.7738 47.3683C46.3914 46.9479 45.9827 46.5536 45.6398 46.0938C44.8619 45.0558 44.5322 43.1771 45.3234 41.9815C45.8113 41.2326 46.4969 40.7201 47.3277 40.418C47.5386 40.3392 47.7496 40.2866 47.9606 40.234C48.5672 40.0763 48.7649 39.8662 48.8309 39.2487C49.0155 37.4881 49.3979 35.7669 49.9253 34.0852C50.3341 32.7714 50.8352 31.4837 51.2967 30.1962C51.4021 29.894 51.5472 29.5918 51.6659 29.2896C51.745 29.0794 51.7054 28.9349 51.4417 28.8955C51.1121 28.8561 50.7956 28.8035 50.4659 28.7641C48.7649 28.5407 47.0771 28.278 45.3761 28.1072C43.4378 27.8969 41.4862 27.7655 39.5347 27.5947C39.5347 27.621 39.5347 27.6605 39.5215 27.6868ZM47.5782 55.3434C47.5386 55.3171 47.4859 55.3039 47.4463 55.2776C47.0244 55.6718 46.5893 56.0397 46.1937 56.4601C44.7959 57.971 43.5169 59.574 42.3565 61.2819C41.1302 63.0819 40.0358 64.9739 39.271 67.0235C38.8754 68.0745 38.5589 69.1519 38.6381 70.2819C38.7436 71.6745 39.3501 72.5286 40.8533 72.9358C41.4862 73.1067 42.0796 72.8964 42.5939 72.5417C43.4773 71.9373 44.018 71.0439 44.4795 70.0979C45.0465 68.9286 45.4948 67.7199 45.7849 66.4585C46.1937 64.6586 46.6025 62.8586 46.9057 61.0323C47.1826 59.4032 47.3145 57.7608 47.5123 56.1185C47.5386 55.8688 47.5518 55.6061 47.5782 55.3434Z" stroke="black" stroke-width="4" stroke-miterlimit="10"/>
<path d="M37.8467 26.1495C36.2775 26.1495 34.7215 26.2283 33.192 26.5304C31.9129 26.7801 30.713 27.24 29.9878 28.3962C29.6845 28.8823 29.4735 29.4735 29.3812 30.0385C29.0384 32.1801 29.6713 34.0457 31.135 35.6618C32.1899 36.818 33.4162 37.7245 34.8403 38.3683C35.2227 38.5391 35.5787 38.7361 35.9611 38.9201C36.4489 39.1566 36.6863 39.5771 36.594 40.1157C36.4489 40.8778 36.2775 41.6398 35.8424 42.3099C35.1831 43.3215 34.2469 43.9784 33.1392 44.4251C31.847 44.9376 30.5943 44.9244 29.3021 44.3726C28.0626 43.8339 26.8759 43.2033 25.7946 42.3887C24.4101 41.3376 23.2497 40.0763 22.3926 38.5522C21.2454 36.5421 20.7575 34.361 20.8498 32.0618C20.9026 30.7742 21.1531 29.5261 21.5487 28.3042C21.8915 27.2531 22.3531 26.2808 22.9201 25.3349C24.2518 23.0882 26.0583 21.3276 28.3 20.0138C30.3834 18.805 32.6118 18.1481 34.9985 18.135C38.4927 18.1087 41.9871 18.1087 45.4814 18.135C47.512 18.1481 49.5427 18.2532 51.5733 18.3189C53.5776 18.3846 55.5951 18.4766 57.5994 18.5028C61.1068 18.5423 64.6143 18.5817 68.1087 18.5423C69.691 18.516 71.2865 18.3189 72.8688 18.1612C73.3303 18.1218 73.7787 17.9904 74.227 17.8985C75.0313 17.7408 75.4269 17.9247 75.7697 18.6474C76.7059 20.5919 76.5477 22.497 75.4796 24.3232C74.4379 26.0969 72.8424 27.1874 70.97 27.9232C69.3086 28.5801 67.568 28.7641 65.8143 28.8823C63.744 29.0268 61.6871 28.8954 59.63 28.6458C58.9179 28.5538 58.7729 28.7115 58.707 29.4209C58.5751 30.7217 58.4037 32.0224 58.2587 33.3362C58.1004 34.6239 57.9554 35.9245 57.8103 37.2121C57.7707 37.5274 57.7707 37.8427 57.7048 38.1581C57.6389 38.4866 57.7707 38.5785 58.074 38.6179C58.9179 38.7361 59.7619 38.6837 60.6058 38.6048C62.3859 38.4471 64.0737 37.9479 65.7483 37.3829C66.3022 37.199 66.8559 37.0151 67.423 36.8968C67.6207 36.8574 67.8976 36.9756 68.0691 37.107C68.9394 37.8033 69.3086 38.7361 69.3481 39.8267C69.4009 41.2457 69.1371 42.5727 68.3328 43.7683C67.7395 44.6617 66.9351 45.3317 65.9857 45.831C64.1924 46.7638 62.254 47.0923 60.2498 47.0923C59.4718 47.0923 58.6938 47.0529 57.9158 47.0266C57.4015 47.0134 57.3356 47.0792 57.2961 47.5915C57.2302 48.3535 57.1774 49.1156 57.0851 49.8776C56.8082 52.3609 56.5445 54.8308 56.2148 57.3141C55.9379 59.4688 55.5159 61.6103 54.8831 63.6993C54.5666 64.7373 54.2633 65.7753 53.8809 66.787C53.3139 68.3242 52.5359 69.7562 51.6393 71.1227C50.3866 73.0277 48.857 74.6963 47.0242 76.0759C45.2045 77.4291 43.2134 78.4539 40.9586 78.8875C39.4949 79.1635 38.0181 79.216 36.5676 78.8875C34.3523 78.362 32.4404 77.2978 31.0822 75.4059C30.3306 74.3548 29.8031 73.1985 29.4867 71.9373C28.9593 69.8482 28.9593 67.7592 29.3944 65.657C29.7768 63.8177 30.4493 62.0833 31.3459 60.4147C32.3217 58.6016 33.5084 56.9462 34.8403 55.3827C36.1457 53.8455 37.5698 52.4133 39.1257 51.1258C40.4971 50.009 41.9079 48.9317 43.3057 47.8281C43.8991 47.3682 44.4924 46.9083 45.0726 46.4222C45.3759 46.1726 45.3627 46.12 45.099 45.831C44.7166 45.4106 44.3078 45.0164 43.965 44.5566C43.187 43.5186 42.8574 41.6398 43.6485 40.4442C44.1364 39.6953 44.8221 39.1829 45.6528 38.8807C45.8638 38.8019 46.0747 38.7493 46.2857 38.6968C46.8922 38.5391 47.0901 38.3289 47.156 37.7114C47.3406 35.9508 47.723 34.2296 48.2504 32.5479C48.6592 31.2341 49.1603 29.9465 49.6218 28.6589C49.7273 28.3567 49.8723 28.0545 49.991 27.7523C50.0701 27.5422 50.0306 27.3977 49.7668 27.3582C49.4372 27.3188 49.1207 27.2663 48.7911 27.2268C47.0901 27.0034 45.4023 26.7407 43.7013 26.5699C41.7629 26.3597 39.8114 26.2283 37.8599 26.0575C37.8599 26.0837 37.8467 26.11 37.8467 26.1495ZM45.8902 53.8061C45.8506 53.7798 45.7979 53.7666 45.7582 53.7404C45.3363 54.1345 44.9012 54.5024 44.5056 54.9229C43.1078 56.4338 41.8288 58.0367 40.6685 59.7447C39.4422 61.5447 38.3477 63.4366 37.5829 65.4862C37.1874 66.5373 36.8709 67.6146 36.95 68.7446C37.0555 70.1373 37.662 70.9913 39.1653 71.3985C39.7982 71.5694 40.3915 71.3591 40.9058 71.0044C41.7893 70.4001 42.3299 69.5066 42.7915 68.5606C43.3584 67.3913 43.8067 66.1826 44.0968 64.9212C44.5056 63.1213 44.9144 61.3213 45.2177 59.495C45.4946 57.8659 45.6264 56.2236 45.8242 54.5812C45.8638 54.3317 45.877 54.0688 45.8902 53.8061Z" fill="white"/>
<path d="M63.5861 80.0569C65.3926 80.1883 67.2519 79.2423 68.1617 77.6788C69.0847 76.1153 69.0188 74.0395 67.9903 72.5417C66.2761 70.0716 61.6478 69.7431 59.8676 72.384C57.8634 75.3533 60.0655 79.7941 63.5861 80.0569Z" fill="white"/>
</g>
<defs>
<clipPath id="clip0_12_17">
<rect width="60" height="65.9155" fill="white" transform="translate(20 17)"/>
</clipPath>
</defs>
</svg>
